<svg width="2954" height="803" viewBox="0 0 2954 803" fill="none" xmlns="http://www.w3.org/2000/svg">
<path d="M2954 321C2020.25 155.655 1260.39 583.479 0 321V803H2954V321Z" fill="#F87060"/>
<path d="M2121 259.831V311H2230.5V91.3084L2221.87 109.693V124.094L2206.33 145.235V115.514L2189.31 0L2171.56 115.514V212.644H2143.69V234.705L2121 259.831Z" fill="#F87060"/>
<path d="M2340 259.831V311H2230.5V91.3084L2239.13 109.693V124.094L2254.67 145.235V115.514L2271.69 0L2289.44 115.514V212.644H2317.31V234.705L2340 259.831Z" fill="#F87060"/>
<path d="M2060 311C2060 343.033 2034.03 369 2002 369C1969.97 369 1944 343.033 1944 311C1944 278.967 1969.97 253 2002 253C2034.03 253 2060 278.967 2060 311Z" fill="#F87060"/>
<path d="M2432 294C2432 319.405 2411.41 340 2386 340C2360.59 340 2340 319.405 2340 294C2340 268.595 2360.59 248 2386 248C2411.41 248 2432 268.595 2432 294Z" fill="#F87060"/>
<path d="M2432 294C2432 319.405 2411.41 340 2386 340C2360.59 340 2340 319.405 2340 294C2340 268.595 2360.59 248 2386 248C2411.41 248 2432 268.595 2432 294Z" fill="#F87060"/>
<path d="M2060 311C2060 343.033 2034.03 369 2002 369C1969.97 369 1944 343.033 1944 311C1944 278.967 1969.97 253 2002 253C2034.03 253 2060 278.967 2060 311Z" fill="#F87060"/>
<path d="M2525 269C2525 301.033 2499.03 327 2467 327C2434.97 327 2409 301.033 2409 269C2409 236.967 2434.97 211 2467 211C2499.03 211 2525 236.967 2525 269Z" fill="#F87060"/>
<path d="M2583 313C2583 337.301 2563.3 357 2539 357C2514.7 357 2495 337.301 2495 313C2495 288.699 2514.7 269 2539 269C2563.3 269 2583 288.699 2583 313Z" fill="#F87060"/>
<path d="M2583 313C2583 337.301 2563.3 357 2539 357C2514.7 357 2495 337.301 2495 313C2495 288.699 2514.7 269 2539 269C2563.3 269 2583 288.699 2583 313Z" fill="#F87060"/>
<path d="M2151 327C2151 359.033 2125.03 385 2093 385C2060.97 385 2035 359.033 2035 327C2035 294.967 2060.97 269 2093 269C2125.03 269 2151 294.967 2151 327Z" fill="#F87060"/>
<path d="M1980 340C1980 372.033 1954.03 398 1922 398C1889.97 398 1864 372.033 1864 340C1864 307.967 1889.97 282 1922 282C1954.03 282 1980 307.967 1980 340Z" fill="#F87060"/>
<path d="M2060 311C2060 343.033 2034.03 369 2002 369C1969.97 369 1944 343.033 1944 311C1944 278.967 1969.97 253 2002 253C2034.03 253 2060 278.967 2060 311Z" fill="#F87060"/>
<path d="M1980 282C1980 298.016 1967.02 311 1951 311C1934.98 311 1922 298.016 1922 282C1922 265.984 1934.98 253 1951 253C1967.02 253 1980 265.984 1980 282Z" fill="#F87060"/>
<path d="M2151 327C2151 359.033 2125.03 385 2093 385C2060.97 385 2035 359.033 2035 327C2035 294.967 2060.97 269 2093 269C2125.03 269 2151 294.967 2151 327Z" fill="#F87060"/>
<path d="M1835 351.5C1835 376.629 1814.63 397 1789.5 397C1764.37 397 1744 376.629 1744 351.5C1744 326.371 1764.37 306 1789.5 306C1814.63 306 1835 326.371 1835 351.5Z" fill="#F87060"/>
<path d="M1980 340C1980 372.033 1954.03 398 1922 398C1889.97 398 1864 372.033 1864 340C1864 307.967 1889.97 282 1922 282C1954.03 282 1980 307.967 1980 340Z" fill="#F87060"/>
<path d="M1515 369C1515 401.033 1489.03 427 1457 427C1424.97 427 1399 401.033 1399 369C1399 336.967 1424.97 311 1457 311C1489.03 311 1515 336.967 1515 369Z" fill="#F87060"/>
<path d="M1581 397.5C1581 422.629 1560.63 443 1535.5 443C1510.37 443 1490 422.629 1490 397.5C1490 372.371 1510.37 352 1535.5 352C1560.63 352 1581 372.371 1581 397.5Z" fill="#F87060"/>
<path d="M1417 407C1417 434.062 1395.06 456 1368 456C1340.94 456 1319 434.062 1319 407C1319 379.938 1340.94 358 1368 358C1395.06 358 1417 379.938 1417 407Z" fill="#F87060"/>
<path d="M1344 401.5C1344 435.466 1316.47 463 1282.5 463C1248.53 463 1221 435.466 1221 401.5C1221 367.534 1248.53 340 1282.5 340C1316.47 340 1344 367.534 1344 401.5Z" fill="#F87060"/>
<path d="M1264 430.5C1264 464.466 1236.47 492 1202.5 492C1168.53 492 1141 464.466 1141 430.5C1141 396.534 1168.53 369 1202.5 369C1236.47 369 1264 396.534 1264 430.5Z" fill="#F87060"/>
<path d="M995 455.5C995 489.466 967.466 517 933.5 517C899.534 517 872 489.466 872 455.5C872 421.534 899.534 394 933.5 394C967.466 394 995 421.534 995 455.5Z" fill="#F87060"/>
</svg>
